{
	"patcher" : 	{
		"fileversion" : 1,
		"appversion" : 		{
			"major" : 5,
			"minor" : 1,
			"revision" : 9
		}
,
		"rect" : [ 60.0, 69.0, 583.0, 567.0 ],
		"bglocked" : 0,
		"defrect" : [ 60.0, 69.0, 583.0, 567.0 ],
		"openrect" : [ 0.0, 0.0, 0.0, 0.0 ],
		"openinpresentation" : 0,
		"default_fontsize" : 12.0,
		"default_fontface" : 0,
		"default_fontname" : "Arial",
		"gridonopen" : 0,
		"gridsize" : [ 15.0, 15.0 ],
		"gridsnaponopen" : 0,
		"toolbarvisible" : 1,
		"boxanimatetime" : 200,
		"imprint" : 0,
		"enablehscroll" : 1,
		"enablevscroll" : 1,
		"devicewidth" : 0.0,
		"boxes" : [ 			{
				"box" : 				{
					"maxclass" : "message",
					"text" : "Augmented",
					"numoutlets" : 1,
					"outlettype" : [ "" ],
					"id" : "obj-70",
					"fontname" : "Arial",
					"patching_rect" : [ 465.0, 90.0, 72.0, 18.0 ],
					"numinlets" : 2,
					"fontsize" : 12.0
				}

			}
, 			{
				"box" : 				{
					"maxclass" : "button",
					"numoutlets" : 1,
					"outlettype" : [ "bang" ],
					"id" : "obj-68",
					"patching_rect" : [ 439.0, 89.0, 20.0, 20.0 ],
					"numinlets" : 1
				}

			}
, 			{
				"box" : 				{
					"maxclass" : "button",
					"numoutlets" : 1,
					"outlettype" : [ "bang" ],
					"id" : "obj-66",
					"patching_rect" : [ 337.0, 90.0, 20.0, 20.0 ],
					"numinlets" : 1
				}

			}
, 			{
				"box" : 				{
					"maxclass" : "message",
					"text" : "Diminished",
					"numoutlets" : 1,
					"outlettype" : [ "" ],
					"id" : "obj-65",
					"fontname" : "Arial",
					"patching_rect" : [ 360.0, 90.0, 70.0, 18.0 ],
					"numinlets" : 2,
					"fontsize" : 12.0
				}

			}
, 			{
				"box" : 				{
					"maxclass" : "message",
					"text" : "Minor",
					"numoutlets" : 1,
					"outlettype" : [ "" ],
					"id" : "obj-63",
					"fontname" : "Arial",
					"patching_rect" : [ 285.0, 90.0, 41.0, 18.0 ],
					"numinlets" : 2,
					"fontsize" : 12.0
				}

			}
, 			{
				"box" : 				{
					"maxclass" : "button",
					"numoutlets" : 1,
					"outlettype" : [ "bang" ],
					"id" : "obj-61",
					"patching_rect" : [ 263.0, 88.0, 20.0, 20.0 ],
					"numinlets" : 1
				}

			}
, 			{
				"box" : 				{
					"maxclass" : "message",
					"text" : "Major",
					"numoutlets" : 1,
					"outlettype" : [ "" ],
					"id" : "obj-59",
					"fontname" : "Arial",
					"patching_rect" : [ 210.0, 90.0, 41.0, 18.0 ],
					"numinlets" : 2,
					"fontsize" : 12.0
				}

			}
, 			{
				"box" : 				{
					"maxclass" : "button",
					"numoutlets" : 1,
					"outlettype" : [ "bang" ],
					"id" : "obj-57",
					"patching_rect" : [ 190.0, 89.0, 20.0, 20.0 ],
					"numinlets" : 1
				}

			}
, 			{
				"box" : 				{
					"maxclass" : "message",
					"text" : "8",
					"numoutlets" : 1,
					"outlettype" : [ "" ],
					"id" : "obj-55",
					"fontname" : "Arial",
					"patching_rect" : [ 405.0, 135.0, 32.5, 18.0 ],
					"numinlets" : 2,
					"fontsize" : 12.0
				}

			}
, 			{
				"box" : 				{
					"maxclass" : "message",
					"text" : "7",
					"numoutlets" : 1,
					"outlettype" : [ "" ],
					"id" : "obj-53",
					"fontname" : "Arial",
					"patching_rect" : [ 367.0, 135.0, 32.5, 18.0 ],
					"numinlets" : 2,
					"fontsize" : 12.0
				}

			}
, 			{
				"box" : 				{
					"maxclass" : "message",
					"text" : "6",
					"numoutlets" : 1,
					"outlettype" : [ "" ],
					"id" : "obj-51",
					"fontname" : "Arial",
					"patching_rect" : [ 333.0, 136.0, 32.5, 18.0 ],
					"numinlets" : 2,
					"fontsize" : 12.0
				}

			}
, 			{
				"box" : 				{
					"maxclass" : "message",
					"text" : "3",
					"numoutlets" : 1,
					"outlettype" : [ "" ],
					"id" : "obj-49",
					"fontname" : "Arial",
					"patching_rect" : [ 255.0, 135.0, 32.5, 18.0 ],
					"numinlets" : 2,
					"fontsize" : 12.0
				}

			}
, 			{
				"box" : 				{
					"maxclass" : "message",
					"text" : "4",
					"numoutlets" : 1,
					"outlettype" : [ "" ],
					"id" : "obj-47",
					"fontname" : "Arial",
					"patching_rect" : [ 215.0, 135.0, 32.5, 18.0 ],
					"numinlets" : 2,
					"fontsize" : 12.0
				}

			}
, 			{
				"box" : 				{
					"maxclass" : "umenu",
					"numoutlets" : 3,
					"items" : [ "Unison", ",", "Minor", "2nd", ",", "Major", "2nd", ",", "Minor", "3rd", ",", "Major", "3rd", ",", "Perfect", "4th", ",", "Tritone", ",", "Perfect", "5th", ",", "Minor", "6th", ",", "Major", "6th", ",", "Minor", "7th", ",", "Major", "7th", ",", "Octave" ],
					"presentation_rect" : [ 266.0, 179.0, 0.0, 0.0 ],
					"outlettype" : [ "int", "", "" ],
					"types" : [  ],
					"id" : "obj-39",
					"fontname" : "Arial",
					"patching_rect" : [ 266.0, 179.0, 100.0, 20.0 ],
					"numinlets" : 1,
					"fontsize" : 12.0
				}

			}
, 			{
				"box" : 				{
					"maxclass" : "number",
					"numoutlets" : 2,
					"presentation_rect" : [ 266.0, 210.0, 0.0, 0.0 ],
					"outlettype" : [ "int", "bang" ],
					"id" : "obj-40",
					"fontname" : "Arial",
					"patching_rect" : [ 266.0, 210.0, 50.0, 20.0 ],
					"numinlets" : 1,
					"fontsize" : 12.0
				}

			}
, 			{
				"box" : 				{
					"maxclass" : "number",
					"numoutlets" : 2,
					"outlettype" : [ "int", "bang" ],
					"id" : "obj-38",
					"fontname" : "Arial",
					"patching_rect" : [ 191.0, 273.0, 50.0, 20.0 ],
					"numinlets" : 1,
					"fontsize" : 12.0
				}

			}
, 			{
				"box" : 				{
					"maxclass" : "newobj",
					"text" : "+ 0",
					"numoutlets" : 1,
					"outlettype" : [ "int" ],
					"id" : "obj-36",
					"fontname" : "Arial",
					"patching_rect" : [ 194.0, 241.0, 32.5, 20.0 ],
					"numinlets" : 2,
					"fontsize" : 12.0
				}

			}
, 			{
				"box" : 				{
					"maxclass" : "umenu",
					"numoutlets" : 3,
					"items" : [ "Unison", ",", "Minor", "2nd", ",", "Major", "2nd", ",", "Minor", "3rd", ",", "Major", "3rd", ",", "Perfect", "4th", ",", "Tritone", ",", "Perfect", "5th", ",", "Minor", "6th", ",", "Major", "6th", ",", "Minor", "7th", ",", "Major", "7th", ",", "Octave" ],
					"outlettype" : [ "int", "", "" ],
					"types" : [  ],
					"id" : "obj-31",
					"fontname" : "Arial",
					"patching_rect" : [ 134.0, 178.0, 100.0, 20.0 ],
					"numinlets" : 1,
					"fontsize" : 12.0
				}

			}
, 			{
				"box" : 				{
					"maxclass" : "number",
					"numoutlets" : 2,
					"outlettype" : [ "int", "bang" ],
					"id" : "obj-29",
					"fontname" : "Arial",
					"patching_rect" : [ 85.0, 287.0, 50.0, 20.0 ],
					"numinlets" : 1,
					"fontsize" : 12.0
				}

			}
, 			{
				"box" : 				{
					"maxclass" : "number",
					"numoutlets" : 2,
					"outlettype" : [ "int", "bang" ],
					"id" : "obj-27",
					"fontname" : "Arial",
					"patching_rect" : [ 134.0, 209.0, 50.0, 20.0 ],
					"numinlets" : 1,
					"fontsize" : 12.0
				}

			}
, 			{
				"box" : 				{
					"maxclass" : "newobj",
					"text" : "+ 0",
					"numoutlets" : 1,
					"outlettype" : [ "int" ],
					"id" : "obj-26",
					"fontname" : "Arial",
					"patching_rect" : [ 89.0, 236.0, 32.5, 20.0 ],
					"numinlets" : 2,
					"fontsize" : 12.0
				}

			}
, 			{
				"box" : 				{
					"maxclass" : "newobj",
					"text" : "noteout",
					"numoutlets" : 0,
					"id" : "obj-24",
					"fontname" : "Arial",
					"patching_rect" : [ 172.0, 435.0, 51.0, 20.0 ],
					"numinlets" : 3,
					"fontsize" : 12.0
				}

			}
, 			{
				"box" : 				{
					"maxclass" : "number",
					"numoutlets" : 2,
					"outlettype" : [ "int", "bang" ],
					"id" : "obj-11",
					"fontname" : "Arial",
					"patching_rect" : [ 261.0, 381.0, 50.0, 20.0 ],
					"numinlets" : 1,
					"fontsize" : 12.0
				}

			}
, 			{
				"box" : 				{
					"maxclass" : "number",
					"numoutlets" : 2,
					"outlettype" : [ "int", "bang" ],
					"id" : "obj-9",
					"fontname" : "Arial",
					"patching_rect" : [ 137.0, 379.0, 50.0, 20.0 ],
					"numinlets" : 1,
					"fontsize" : 12.0
				}

			}
, 			{
				"box" : 				{
					"maxclass" : "kslider",
					"numoutlets" : 2,
					"mode" : 1,
					"outlettype" : [ "int", "int" ],
					"id" : "obj-7",
					"patching_rect" : [ 89.0, 316.0, 336.0, 53.0 ],
					"numinlets" : 2
				}

			}
, 			{
				"box" : 				{
					"maxclass" : "newobj",
					"text" : "notein",
					"numoutlets" : 3,
					"outlettype" : [ "int", "int", "int" ],
					"id" : "obj-5",
					"fontname" : "Arial",
					"patching_rect" : [ 133.0, 114.0, 46.0, 20.0 ],
					"numinlets" : 1,
					"fontsize" : 12.0
				}

			}
, 			{
				"box" : 				{
					"maxclass" : "number",
					"numoutlets" : 2,
					"outlettype" : [ "int", "bang" ],
					"id" : "obj-4",
					"fontname" : "Arial",
					"patching_rect" : [ 395.0, 281.0, 50.0, 20.0 ],
					"numinlets" : 1,
					"fontsize" : 12.0
				}

			}
, 			{
				"box" : 				{
					"maxclass" : "number",
					"numoutlets" : 2,
					"outlettype" : [ "int", "bang" ],
					"id" : "obj-2",
					"fontname" : "Arial",
					"patching_rect" : [ 64.0, 195.0, 50.0, 20.0 ],
					"numinlets" : 1,
					"fontsize" : 12.0
				}

			}
 ],
		"lines" : [ 			{
				"patchline" : 				{
					"source" : [ "obj-66", 0 ],
					"destination" : [ "obj-49", 0 ],
					"hidden" : 0,
					"midpoints" : [ 346.5, 120.0, 264.5, 120.0 ]
				}

			}
, 			{
				"patchline" : 				{
					"source" : [ "obj-66", 0 ],
					"destination" : [ "obj-51", 0 ],
					"hidden" : 0,
					"midpoints" : [ 346.5, 132.0, 342.5, 132.0 ]
				}

			}
, 			{
				"patchline" : 				{
					"source" : [ "obj-68", 0 ],
					"destination" : [ "obj-55", 0 ],
					"hidden" : 0,
					"midpoints" : [ 448.5, 120.0, 414.5, 120.0 ]
				}

			}
, 			{
				"patchline" : 				{
					"source" : [ "obj-68", 0 ],
					"destination" : [ "obj-47", 0 ],
					"hidden" : 0,
					"midpoints" : [ 448.5, 120.0, 224.5, 120.0 ]
				}

			}
, 			{
				"patchline" : 				{
					"source" : [ "obj-61", 0 ],
					"destination" : [ "obj-53", 0 ],
					"hidden" : 0,
					"midpoints" : [ 272.5, 120.0, 376.5, 120.0 ]
				}

			}
, 			{
				"patchline" : 				{
					"source" : [ "obj-61", 0 ],
					"destination" : [ "obj-49", 0 ],
					"hidden" : 0,
					"midpoints" : [ 272.5, 120.0, 264.5, 120.0 ]
				}

			}
, 			{
				"patchline" : 				{
					"source" : [ "obj-57", 0 ],
					"destination" : [ "obj-53", 0 ],
					"hidden" : 0,
					"midpoints" : [ 199.5, 120.0, 376.5, 120.0 ]
				}

			}
, 			{
				"patchline" : 				{
					"source" : [ "obj-57", 0 ],
					"destination" : [ "obj-47", 0 ],
					"hidden" : 0,
					"midpoints" : [ 199.5, 120.0, 224.5, 120.0 ]
				}

			}
, 			{
				"patchline" : 				{
					"source" : [ "obj-55", 0 ],
					"destination" : [ "obj-39", 0 ],
					"hidden" : 0,
					"midpoints" : [ 414.5, 165.0, 275.5, 165.0 ]
				}

			}
, 			{
				"patchline" : 				{
					"source" : [ "obj-53", 0 ],
					"destination" : [ "obj-39", 0 ],
					"hidden" : 0,
					"midpoints" : [ 376.5, 165.0, 275.5, 165.0 ]
				}

			}
, 			{
				"patchline" : 				{
					"source" : [ "obj-51", 0 ],
					"destination" : [ "obj-39", 0 ],
					"hidden" : 0,
					"midpoints" : [ 342.5, 165.0, 275.5, 165.0 ]
				}

			}
, 			{
				"patchline" : 				{
					"source" : [ "obj-49", 0 ],
					"destination" : [ "obj-31", 0 ],
					"hidden" : 0,
					"midpoints" : [ 264.5, 165.0, 143.5, 165.0 ]
				}

			}
, 			{
				"patchline" : 				{
					"source" : [ "obj-47", 0 ],
					"destination" : [ "obj-31", 0 ],
					"hidden" : 0,
					"midpoints" : [ 224.5, 165.0, 143.5, 165.0 ]
				}

			}
, 			{
				"patchline" : 				{
					"source" : [ "obj-2", 0 ],
					"destination" : [ "obj-7", 0 ],
					"hidden" : 0,
					"midpoints" : [ 73.5, 312.0, 98.5, 312.0 ]
				}

			}
, 			{
				"patchline" : 				{
					"source" : [ "obj-40", 0 ],
					"destination" : [ "obj-36", 1 ],
					"hidden" : 0,
					"midpoints" : [ 275.5, 240.0, 228.0, 240.0, 228.0, 237.0, 217.0, 237.0 ]
				}

			}
, 			{
				"patchline" : 				{
					"source" : [ "obj-39", 0 ],
					"destination" : [ "obj-40", 0 ],
					"hidden" : 0,
					"midpoints" : [ 275.5, 201.0, 275.5, 201.0 ]
				}

			}
, 			{
				"patchline" : 				{
					"source" : [ "obj-38", 0 ],
					"destination" : [ "obj-7", 0 ],
					"hidden" : 0,
					"midpoints" : [ 200.5, 303.0, 135.0, 303.0, 135.0, 312.0, 98.5, 312.0 ]
				}

			}
, 			{
				"patchline" : 				{
					"source" : [ "obj-36", 0 ],
					"destination" : [ "obj-38", 0 ],
					"hidden" : 0,
					"midpoints" : [ 203.5, 270.0, 200.5, 270.0 ]
				}

			}
, 			{
				"patchline" : 				{
					"source" : [ "obj-2", 0 ],
					"destination" : [ "obj-36", 0 ],
					"hidden" : 0,
					"midpoints" : [ 73.5, 267.0, 177.0, 267.0, 177.0, 240.0, 189.0, 240.0, 189.0, 237.0, 203.5, 237.0 ]
				}

			}
, 			{
				"patchline" : 				{
					"source" : [ "obj-11", 0 ],
					"destination" : [ "obj-24", 1 ],
					"hidden" : 0,
					"midpoints" : [ 270.5, 420.0, 197.5, 420.0 ]
				}

			}
, 			{
				"patchline" : 				{
					"source" : [ "obj-9", 0 ],
					"destination" : [ "obj-24", 0 ],
					"hidden" : 0,
					"midpoints" : [ 146.5, 420.0, 181.5, 420.0 ]
				}

			}
, 			{
				"patchline" : 				{
					"source" : [ "obj-31", 0 ],
					"destination" : [ "obj-27", 0 ],
					"hidden" : 0,
					"midpoints" : [ 143.5, 198.0, 143.5, 198.0 ]
				}

			}
, 			{
				"patchline" : 				{
					"source" : [ "obj-26", 0 ],
					"destination" : [ "obj-29", 0 ],
					"hidden" : 0,
					"midpoints" : [ 98.5, 282.0, 94.5, 282.0 ]
				}

			}
, 			{
				"patchline" : 				{
					"source" : [ "obj-27", 0 ],
					"destination" : [ "obj-26", 1 ],
					"hidden" : 0,
					"midpoints" : [ 143.5, 231.0, 112.0, 231.0 ]
				}

			}
, 			{
				"patchline" : 				{
					"source" : [ "obj-2", 0 ],
					"destination" : [ "obj-26", 0 ],
					"hidden" : 0,
					"midpoints" : [ 73.5, 231.0, 98.5, 231.0 ]
				}

			}
, 			{
				"patchline" : 				{
					"source" : [ "obj-29", 0 ],
					"destination" : [ "obj-7", 0 ],
					"hidden" : 0,
					"midpoints" : [ 94.5, 312.0, 98.5, 312.0 ]
				}

			}
, 			{
				"patchline" : 				{
					"source" : [ "obj-7", 1 ],
					"destination" : [ "obj-11", 0 ],
					"hidden" : 0,
					"midpoints" : [ 415.5, 381.0, 312.0, 381.0, 312.0, 378.0, 270.5, 378.0 ]
				}

			}
, 			{
				"patchline" : 				{
					"source" : [ "obj-7", 0 ],
					"destination" : [ "obj-9", 0 ],
					"hidden" : 0,
					"midpoints" : [ 98.5, 369.0, 141.0, 369.0, 141.0, 375.0, 146.5, 375.0 ]
				}

			}
, 			{
				"patchline" : 				{
					"source" : [ "obj-4", 0 ],
					"destination" : [ "obj-7", 1 ],
					"hidden" : 0,
					"midpoints" : [ 404.5, 303.0, 415.5, 303.0 ]
				}

			}
, 			{
				"patchline" : 				{
					"source" : [ "obj-5", 1 ],
					"destination" : [ "obj-4", 0 ],
					"hidden" : 0,
					"midpoints" : [ 156.0, 165.0, 404.5, 165.0 ]
				}

			}
, 			{
				"patchline" : 				{
					"source" : [ "obj-5", 0 ],
					"destination" : [ "obj-2", 0 ],
					"hidden" : 0,
					"midpoints" : [ 142.5, 165.0, 73.5, 165.0 ]
				}

			}
 ]
	}

}
